<svg id="Layer_1" data-name="Layer 1" xmlns="http://www.w3.org/2000/svg" xmlns:xlink="http://www.w3.org/1999/xlink" viewBox="0 0 658.52 383.23"><defs><style>.cls-1{fill:none;}.cls-2{fill:url(#linear-gradient);}.cls-3{clip-path:url(#clip-path);}.cls-4{fill:url(#linear-gradient-2);}.cls-5{clip-path:url(#clip-path-2);}.cls-6{fill:url(#linear-gradient-3);}.cls-7{clip-path:url(#clip-path-3);}.cls-8{fill:url(#linear-gradient-5);}.cls-9{clip-path:url(#clip-path-4);}.cls-10{fill:url(#linear-gradient-6);}.cls-11{clip-path:url(#clip-path-5);}.cls-12{fill:url(#linear-gradient-7);}.cls-13{clip-path:url(#clip-path-6);}.cls-14{fill:url(#linear-gradient-8);}.cls-15{clip-path:url(#clip-path-7);}.cls-16{fill:url(#linear-gradient-9);}.cls-17{clip-path:url(#clip-path-8);}.cls-18{fill:url(#linear-gradient-10);}.cls-19{clip-path:url(#clip-path-9);}.cls-20{fill:url(#linear-gradient-11);}</style><linearGradient id="linear-gradient" x1="101.02" y1="407.22" x2="83.74" y2="106.98" gradientUnits="userSpaceOnUse"><stop offset="0" stop-color="#0096d2"/><stop offset="0.5" stop-color="#00b4d2"/><stop offset="1" stop-color="#47c3d8"/></linearGradient><clipPath id="clip-path"><path id="SVGID" class="cls-1" d="M423.25,199.46a5,5,0,0,0-5,5v135a20,20,0,0,0,20,20h75a5,5,0,0,0,5-5v-30a5,5,0,0,0-5-5h-15v-115a5,5,0,0,0-5-5Z"/></clipPath><linearGradient id="linear-gradient-2" x1="-7676.55" y1="832.53" x2="-7700.31" y2="430.77" gradientTransform="matrix(0, -160, -160, 0, 229502, -1222301)" xlink:href="#linear-gradient"/><clipPath id="clip-path-2"><path id="SVGID-2" data-name="SVGID" class="cls-1" d="M578.25,299.46v-40a2,2,0,0,1,2-2h13a5,5,0,0,1,5,5v34a5,5,0,0,1-5,5h-13a2,2,0,0,1-2-2m-45-100a5,5,0,0,0-5,5v150a5,5,0,0,0,5,5h85a20,20,0,0,0,20-20v-120a20,20,0,0,0-20-20Z"/></clipPath><linearGradient id="linear-gradient-3" x1="-7676.55" y1="832.53" x2="-7700.31" y2="430.77" gradientTransform="matrix(0, -160, -160, 0, 229616.91, -1222300.53)" xlink:href="#linear-gradient"/><clipPath id="clip-path-3"><path id="SVGID-3" data-name="SVGID" class="cls-2" d="M128.25,199.46a5,5,0,0,0-5,5v53a2,2,0,0,1-2,2h-6a2,2,0,0,1-2-2v-53a5,5,0,0,0-5-5h-30a5,5,0,0,0-5,5v53a2,2,0,0,1-2,2h-6a2,2,0,0,1-2-2v-53a5,5,0,0,0-5-5h-35a5,5,0,0,0-5,5v135a20,20,0,0,0,20,20h45a5,5,0,0,0,5-5v-53a2,2,0,0,1,2-2h6a2,2,0,0,1,2,2v53a5,5,0,0,0,5,5h45a20,20,0,0,0,20-20v-135a5,5,0,0,0-5-5Z"/></clipPath><linearGradient id="linear-gradient-5" x1="-7674.47" y1="852.17" x2="-7691.75" y2="551.93" gradientTransform="matrix(0, -160, -160, 0, 229127.09, -1222301.47)" xlink:href="#linear-gradient"/><clipPath id="clip-path-4"><path id="SVGID-4" data-name="SVGID" class="cls-1" d="M225.25,296.46v-34a5,5,0,0,1,5-5h6a5,5,0,0,1,5,5v34a5,5,0,0,1-5,5h-6a5,5,0,0,1-5-5m-27-97a20,20,0,0,0-20,20v120a20,20,0,0,0,20,20h70a20,20,0,0,0,20-20v-120a20,20,0,0,0-20-20Z"/></clipPath><linearGradient id="linear-gradient-6" x1="-7602.42" y1="115.35" x2="-7601.7" y2="90.87" gradientTransform="matrix(0, -160, -160, 0, 229267, -1222301)" xlink:href="#linear-gradient"/><clipPath id="clip-path-5"><path id="SVGID-5" data-name="SVGID" class="cls-1" d="M348.25,267.46v-8a2,2,0,0,1,2-2h28a5,5,0,0,1,5,5v2a5,5,0,0,1-5,5h-28a2,2,0,0,1-2-2m-45-68a5,5,0,0,0-5,5v150a5,5,0,0,0,5,5h45a5,5,0,0,0,5-5v-63a2,2,0,0,1,2-2h5a2,2,0,0,1,2,2v63a5,5,0,0,0,5,5h36a5,5,0,0,0,5-5v-46a20,20,0,0,0-20-20,20,20,0,0,0,20-20v-49a20,20,0,0,0-20-20Z"/></clipPath><linearGradient id="linear-gradient-7" x1="-7676.55" y1="832.53" x2="-7700.31" y2="430.77" gradientTransform="matrix(0, -160, -160, 0, 229387, -1222301)" xlink:href="#linear-gradient"/><clipPath id="clip-path-6"><path id="SVGID-6" data-name="SVGID" class="cls-1" d="M343.25,19.46a5,5,0,0,0-5,5v135a20,20,0,0,0,20,20h75a5,5,0,0,0,5-5v-30a5,5,0,0,0-5-5h-13a2,2,0,0,1-2-2v-26a2,2,0,0,1,2-2h13a5,5,0,0,0,5-5v-10a5,5,0,0,0-5-5h-13a2,2,0,0,1-2-2v-63a5,5,0,0,0-5-5Z"/></clipPath><linearGradient id="linear-gradient-8" x1="-7666.48" y1="1261.93" x2="-7629.76" y2="1508.17" gradientTransform="matrix(0, -160, -160, 0, 229502, -1222481)" gradientUnits="userSpaceOnUse"><stop offset="0" stop-color="#f5ac1b"/><stop offset="0.5" stop-color="#fcbf10"/><stop offset="1" stop-color="#fdda00"/></linearGradient><clipPath id="clip-path-7"><path id="SVGID-7" data-name="SVGID" class="cls-1" d="M485.25,87.46v-5a5,5,0,0,1,5-5h26a5,5,0,0,1,5,5v5a2,2,0,0,1-2,2h-32a2,2,0,0,1-2-2m-17-68a20,20,0,0,0-20,20v135a5,5,0,0,0,5,5h40a5,5,0,0,0,5-5v-63a2,2,0,0,1,2-2h6a2,2,0,0,1,2,2v63a5,5,0,0,0,5,5h40a5,5,0,0,0,5-5v-135a20,20,0,0,0-20-20Z"/></clipPath><linearGradient id="linear-gradient-9" x1="-7666.48" y1="1261.93" x2="-7629.76" y2="1508.17" gradientTransform="matrix(0, -160, -160, 0, 229617, -1222481)" xlink:href="#linear-gradient-8"/><clipPath id="clip-path-8"><path id="SVGID-8" data-name="SVGID" class="cls-1" d="M223.25,19.46a5,5,0,0,0-5,5v150a5,5,0,0,0,5,5h100a5,5,0,0,0,5-5v-48a5,5,0,0,0-5-5h-65v-12h65a5,5,0,0,0,5-5v-10a5,5,0,0,0-5-5h-65v-12h65a5,5,0,0,0,5-5v-48a5,5,0,0,0-5-5Z"/></clipPath><linearGradient id="linear-gradient-10" x1="-7666.48" y1="1261.93" x2="-7629.76" y2="1508.17" gradientTransform="matrix(0, -160, -160, 0, 229387, -1222481)" xlink:href="#linear-gradient-8"/><clipPath id="clip-path-9"><path id="SVGID-9" data-name="SVGID" class="cls-1" d="M148.25,119.46v-8a2,2,0,0,1,2-2h28a5,5,0,0,1,5,5v2a5,5,0,0,1-5,5h-28a2,2,0,0,1-2-2m0-32v-8a2,2,0,0,1,2-2h28a5,5,0,0,1,5,5v2a5,5,0,0,1-5,5h-28a2,2,0,0,1-2-2m-45-68a5,5,0,0,0-5,5v150a5,5,0,0,0,5,5h85a20,20,0,0,0,20-20v-40a20,20,0,0,0-20-20,20,20,0,0,0,20-20v-40a20,20,0,0,0-20-20Z"/></clipPath><linearGradient id="linear-gradient-11" x1="-7666.48" y1="1261.93" x2="-7629.76" y2="1508.17" gradientTransform="matrix(0, -160, -160, 0, 229267, -1222481)" xlink:href="#linear-gradient-8"/></defs><title>logobetaworld</title><g class="cls-3"><rect class="cls-4" x="418.25" y="199.46" width="100" height="160"/></g><g class="cls-5"><rect class="cls-6" x="528.25" y="199.46" width="110" height="160"/></g><path id="SVGID-10" data-name="SVGID" class="cls-2" d="M128.25,199.46a5,5,0,0,0-5,5v53a2,2,0,0,1-2,2h-6a2,2,0,0,1-2-2v-53a5,5,0,0,0-5-5h-30a5,5,0,0,0-5,5v53a2,2,0,0,1-2,2h-6a2,2,0,0,1-2-2v-53a5,5,0,0,0-5-5h-35a5,5,0,0,0-5,5v135a20,20,0,0,0,20,20h45a5,5,0,0,0,5-5v-53a2,2,0,0,1,2-2h6a2,2,0,0,1,2,2v53a5,5,0,0,0,5,5h45a20,20,0,0,0,20-20v-135a5,5,0,0,0-5-5Z"/><g class="cls-7"><rect class="cls-8" x="18.25" y="199.46" width="150" height="160"/></g><g class="cls-9"><rect class="cls-10" x="178.25" y="199.46" width="110" height="160"/></g><g class="cls-11"><rect class="cls-12" x="298.25" y="199.46" width="110" height="160"/></g><g class="cls-13"><rect class="cls-14" x="338.25" y="19.46" width="100" height="160"/></g><g class="cls-15"><rect class="cls-16" x="448.25" y="19.46" width="110" height="160"/></g><g class="cls-17"><rect class="cls-18" x="218.25" y="19.46" width="110" height="160"/></g><g class="cls-19"><rect class="cls-20" x="98.25" y="19.46" width="110" height="160"/></g></svg>