<svg id="Layer_1" data-name="Layer 1" xmlns="http://www.w3.org/2000/svg" xmlns:xlink="http://www.w3.org/1999/xlink" viewBox="0 0 658.52 383.23"><defs><style>.cls-1{fill:#fff;}.cls-2{clip-path:url(#clip-path);}.cls-3{clip-path:url(#clip-path-2);}.cls-4{clip-path:url(#clip-path-3);}.cls-5{clip-path:url(#clip-path-4);}.cls-6{clip-path:url(#clip-path-5);}.cls-7{clip-path:url(#clip-path-6);}.cls-8{clip-path:url(#clip-path-7);}.cls-9{clip-path:url(#clip-path-8);}.cls-10{clip-path:url(#clip-path-9);}</style><clipPath id="clip-path"><path id="SVGID" class="cls-1" d="M423.25,199.46a5,5,0,0,0-5,5v135a20,20,0,0,0,20,20h75a5,5,0,0,0,5-5v-30a5,5,0,0,0-5-5h-15v-115a5,5,0,0,0-5-5Z"/></clipPath><clipPath id="clip-path-2"><path id="SVGID-2" data-name="SVGID" class="cls-1" d="M578.25,299.46v-40a2,2,0,0,1,2-2h13a5,5,0,0,1,5,5v34a5,5,0,0,1-5,5h-13a2,2,0,0,1-2-2m-45-100a5,5,0,0,0-5,5v150a5,5,0,0,0,5,5h85a20,20,0,0,0,20-20v-120a20,20,0,0,0-20-20Z"/></clipPath><clipPath id="clip-path-3"><path id="SVGID-3" data-name="SVGID" class="cls-1" d="M128.25,199.46a5,5,0,0,0-5,5v53a2,2,0,0,1-2,2h-6a2,2,0,0,1-2-2v-53a5,5,0,0,0-5-5h-30a5,5,0,0,0-5,5v53a2,2,0,0,1-2,2h-6a2,2,0,0,1-2-2v-53a5,5,0,0,0-5-5h-35a5,5,0,0,0-5,5v135a20,20,0,0,0,20,20h45a5,5,0,0,0,5-5v-53a2,2,0,0,1,2-2h6a2,2,0,0,1,2,2v53a5,5,0,0,0,5,5h45a20,20,0,0,0,20-20v-135a5,5,0,0,0-5-5Z"/></clipPath><clipPath id="clip-path-4"><path id="SVGID-4" data-name="SVGID" class="cls-1" d="M225.25,296.46v-34a5,5,0,0,1,5-5h6a5,5,0,0,1,5,5v34a5,5,0,0,1-5,5h-6a5,5,0,0,1-5-5m-27-97a20,20,0,0,0-20,20v120a20,20,0,0,0,20,20h70a20,20,0,0,0,20-20v-120a20,20,0,0,0-20-20Z"/></clipPath><clipPath id="clip-path-5"><path id="SVGID-5" data-name="SVGID" class="cls-1" d="M348.25,267.46v-8a2,2,0,0,1,2-2h28a5,5,0,0,1,5,5v2a5,5,0,0,1-5,5h-28a2,2,0,0,1-2-2m-45-68a5,5,0,0,0-5,5v150a5,5,0,0,0,5,5h45a5,5,0,0,0,5-5v-63a2,2,0,0,1,2-2h5a2,2,0,0,1,2,2v63a5,5,0,0,0,5,5h36a5,5,0,0,0,5-5v-46a20,20,0,0,0-20-20,20,20,0,0,0,20-20v-49a20,20,0,0,0-20-20Z"/></clipPath><clipPath id="clip-path-6"><path id="SVGID-6" data-name="SVGID" class="cls-1" d="M343.25,19.46a5,5,0,0,0-5,5v135a20,20,0,0,0,20,20h75a5,5,0,0,0,5-5v-30a5,5,0,0,0-5-5h-13a2,2,0,0,1-2-2v-26a2,2,0,0,1,2-2h13a5,5,0,0,0,5-5v-10a5,5,0,0,0-5-5h-13a2,2,0,0,1-2-2v-63a5,5,0,0,0-5-5Z"/></clipPath><clipPath id="clip-path-7"><path id="SVGID-7" data-name="SVGID" class="cls-1" d="M485.25,87.46v-5a5,5,0,0,1,5-5h26a5,5,0,0,1,5,5v5a2,2,0,0,1-2,2h-32a2,2,0,0,1-2-2m-17-68a20,20,0,0,0-20,20v135a5,5,0,0,0,5,5h40a5,5,0,0,0,5-5v-63a2,2,0,0,1,2-2h6a2,2,0,0,1,2,2v63a5,5,0,0,0,5,5h40a5,5,0,0,0,5-5v-135a20,20,0,0,0-20-20Z"/></clipPath><clipPath id="clip-path-8"><path id="SVGID-8" data-name="SVGID" class="cls-1" d="M223.25,19.46a5,5,0,0,0-5,5v150a5,5,0,0,0,5,5h100a5,5,0,0,0,5-5v-48a5,5,0,0,0-5-5h-65v-12h65a5,5,0,0,0,5-5v-10a5,5,0,0,0-5-5h-65v-12h65a5,5,0,0,0,5-5v-48a5,5,0,0,0-5-5Z"/></clipPath><clipPath id="clip-path-9"><path id="SVGID-9" data-name="SVGID" class="cls-1" d="M148.25,119.46v-8a2,2,0,0,1,2-2h28a5,5,0,0,1,5,5v2a5,5,0,0,1-5,5h-28a2,2,0,0,1-2-2m0-32v-8a2,2,0,0,1,2-2h28a5,5,0,0,1,5,5v2a5,5,0,0,1-5,5h-28a2,2,0,0,1-2-2m-45-68a5,5,0,0,0-5,5v150a5,5,0,0,0,5,5h85a20,20,0,0,0,20-20v-40a20,20,0,0,0-20-20,20,20,0,0,0,20-20v-40a20,20,0,0,0-20-20Z"/></clipPath></defs><title>logolighttheme</title><path id="SVGID-10" data-name="SVGID" class="cls-1" d="M423.25,199.46a5,5,0,0,0-5,5v135a20,20,0,0,0,20,20h75a5,5,0,0,0,5-5v-30a5,5,0,0,0-5-5h-15v-115a5,5,0,0,0-5-5Z"/><g class="cls-2"><rect class="cls-1" x="418.25" y="199.46" width="100" height="160"/></g><path id="SVGID-11" data-name="SVGID" class="cls-1" d="M578.25,299.46v-40a2,2,0,0,1,2-2h13a5,5,0,0,1,5,5v34a5,5,0,0,1-5,5h-13a2,2,0,0,1-2-2m-45-100a5,5,0,0,0-5,5v150a5,5,0,0,0,5,5h85a20,20,0,0,0,20-20v-120a20,20,0,0,0-20-20Z"/><g class="cls-3"><rect class="cls-1" x="528.25" y="199.46" width="110" height="160"/></g><path id="SVGID-12" data-name="SVGID" class="cls-1" d="M128.25,199.46a5,5,0,0,0-5,5v53a2,2,0,0,1-2,2h-6a2,2,0,0,1-2-2v-53a5,5,0,0,0-5-5h-30a5,5,0,0,0-5,5v53a2,2,0,0,1-2,2h-6a2,2,0,0,1-2-2v-53a5,5,0,0,0-5-5h-35a5,5,0,0,0-5,5v135a20,20,0,0,0,20,20h45a5,5,0,0,0,5-5v-53a2,2,0,0,1,2-2h6a2,2,0,0,1,2,2v53a5,5,0,0,0,5,5h45a20,20,0,0,0,20-20v-135a5,5,0,0,0-5-5Z"/><g class="cls-4"><rect class="cls-1" x="18.25" y="199.46" width="150" height="160"/></g><path id="SVGID-13" data-name="SVGID" class="cls-1" d="M225.25,296.46v-34a5,5,0,0,1,5-5h6a5,5,0,0,1,5,5v34a5,5,0,0,1-5,5h-6a5,5,0,0,1-5-5m-27-97a20,20,0,0,0-20,20v120a20,20,0,0,0,20,20h70a20,20,0,0,0,20-20v-120a20,20,0,0,0-20-20Z"/><g class="cls-5"><rect class="cls-1" x="178.25" y="199.46" width="110" height="160"/></g><path id="SVGID-14" data-name="SVGID" class="cls-1" d="M348.25,267.46v-8a2,2,0,0,1,2-2h28a5,5,0,0,1,5,5v2a5,5,0,0,1-5,5h-28a2,2,0,0,1-2-2m-45-68a5,5,0,0,0-5,5v150a5,5,0,0,0,5,5h45a5,5,0,0,0,5-5v-63a2,2,0,0,1,2-2h5a2,2,0,0,1,2,2v63a5,5,0,0,0,5,5h36a5,5,0,0,0,5-5v-46a20,20,0,0,0-20-20,20,20,0,0,0,20-20v-49a20,20,0,0,0-20-20Z"/><g class="cls-6"><rect class="cls-1" x="298.25" y="199.46" width="110" height="160"/></g><path id="SVGID-15" data-name="SVGID" class="cls-1" d="M343.25,19.46a5,5,0,0,0-5,5v135a20,20,0,0,0,20,20h75a5,5,0,0,0,5-5v-30a5,5,0,0,0-5-5h-13a2,2,0,0,1-2-2v-26a2,2,0,0,1,2-2h13a5,5,0,0,0,5-5v-10a5,5,0,0,0-5-5h-13a2,2,0,0,1-2-2v-63a5,5,0,0,0-5-5Z"/><g class="cls-7"><rect class="cls-1" x="338.25" y="19.46" width="100" height="160"/></g><path id="SVGID-16" data-name="SVGID" class="cls-1" d="M485.25,87.46v-5a5,5,0,0,1,5-5h26a5,5,0,0,1,5,5v5a2,2,0,0,1-2,2h-32a2,2,0,0,1-2-2m-17-68a20,20,0,0,0-20,20v135a5,5,0,0,0,5,5h40a5,5,0,0,0,5-5v-63a2,2,0,0,1,2-2h6a2,2,0,0,1,2,2v63a5,5,0,0,0,5,5h40a5,5,0,0,0,5-5v-135a20,20,0,0,0-20-20Z"/><g class="cls-8"><rect class="cls-1" x="448.25" y="19.46" width="110" height="160"/></g><path id="SVGID-17" data-name="SVGID" class="cls-1" d="M223.25,19.46a5,5,0,0,0-5,5v150a5,5,0,0,0,5,5h100a5,5,0,0,0,5-5v-48a5,5,0,0,0-5-5h-65v-12h65a5,5,0,0,0,5-5v-10a5,5,0,0,0-5-5h-65v-12h65a5,5,0,0,0,5-5v-48a5,5,0,0,0-5-5Z"/><g class="cls-9"><rect class="cls-1" x="218.25" y="19.46" width="110" height="160"/></g><path id="SVGID-18" data-name="SVGID" class="cls-1" d="M148.25,119.46v-8a2,2,0,0,1,2-2h28a5,5,0,0,1,5,5v2a5,5,0,0,1-5,5h-28a2,2,0,0,1-2-2m0-32v-8a2,2,0,0,1,2-2h28a5,5,0,0,1,5,5v2a5,5,0,0,1-5,5h-28a2,2,0,0,1-2-2m-45-68a5,5,0,0,0-5,5v150a5,5,0,0,0,5,5h85a20,20,0,0,0,20-20v-40a20,20,0,0,0-20-20,20,20,0,0,0,20-20v-40a20,20,0,0,0-20-20Z"/><g class="cls-10"><rect class="cls-1" x="98.25" y="19.46" width="110" height="160"/></g></svg>